<svg xmlns="http://www.w3.org/2000/svg" viewBox="0 0 512 512">
  <defs>
    <linearGradient id="grad" x1="0%" y1="0%" x2="100%" y2="100%">
      <stop offset="0%" style="stop-color:#4299e1;stop-opacity:1" /> <!-- Primary Blue -->
      <stop offset="100%" style="stop-color:#ed64a6;stop-opacity:1" /> <!-- Accent Pink -->
    </linearGradient>
    <filter id="shadow" x="-20%" y="-20%" width="140%" height="140%">
      <feGaussianBlur in="SourceAlpha" stdDeviation="15"/>
      <feOffset dx="0" dy="10" result="offsetblur"/>
      <feComponentTransfer>
        <feFuncA type="linear" slope="0.5"/>
      </feComponentTransfer>
      <feMerge> 
        <feMergeNode/>
        <feMergeNode in="SourceGraphic"/> 
      </feMerge>
    </filter>
  </defs>
  
  <!-- Map Pin Shape -->
  <path d="M256 32C149.96 32 64 117.96 64 224c0 100.28 153.9 268.06 179.17 294.62 6.72 7.07 18.25 7.18 25.66 0C294.1 492.06 448 324.28 448 224 448 117.96 362.04 32 256 32z" fill="url(#grad)" filter="url(#shadow)"/>
  
  <!-- Inner Circle/M cutout or white overlay -->
  <circle cx="256" cy="224" r="96" fill="white" opacity="0.2"/>
  <path d="M256 224m-64 0a64 64 0 1 0 128 0a64 64 0 1 0 -128 0" fill="none" stroke="white" stroke-width="24" stroke-linecap="round"/>
</svg>
